<svg width="480" height="362" viewBox="0 0 480 362" fill="none" xmlns="http://www.w3.org/2000/svg">
<path opacity="0.1" d="M20.1281 360.085L0.320137 136.457C-0.185063 130.751 1.55573 125.072 5.17213 120.629L96.6241 8.29734C98.9269 5.46734 101.897 3.25453 105.268 1.85813C108.638 0.461733 112.303 -0.0746642 115.932 0.297336L395.628 29.0493C399.504 29.4485 403.204 30.8705 406.352 33.1693C409.496 35.4685 411.976 38.5617 413.536 42.1333L477.936 189.489C479.628 193.362 480.172 197.641 479.496 201.813L453.856 360.133L20.1281 360.085Z" fill="url(#paint0_linear_344_7281)"/>
<path d="M459.048 360.437H15.6003C15.5155 360.437 15.4343 360.405 15.3739 360.345C15.3139 360.285 15.2803 360.201 15.2803 360.117C15.2803 360.033 15.3139 359.949 15.3739 359.889C15.4343 359.829 15.5155 359.797 15.6003 359.797H459.08C459.124 359.797 459.164 359.805 459.204 359.821C459.244 359.837 459.28 359.861 459.308 359.889C459.336 359.921 459.36 359.953 459.376 359.993C459.392 360.033 459.4 360.073 459.4 360.117C459.4 360.161 459.388 360.205 459.372 360.245C459.352 360.285 459.328 360.321 459.292 360.353C459.26 360.381 459.22 360.405 459.18 360.421C459.136 360.433 459.092 360.441 459.048 360.437Z" fill="#AFB3B8"/>
<path opacity="0.3" d="M365.388 101.277H410.8C412.264 101.277 413.672 101.859 414.708 102.895C415.744 103.931 416.324 105.337 416.324 106.801V252.133C416.324 253.139 415.924 254.104 415.212 254.815C414.504 255.526 413.536 255.925 412.532 255.925H365.372C364.368 255.92 363.412 255.519 362.704 254.808C361.996 254.097 361.6 253.136 361.6 252.133V105.057C361.604 104.055 362.004 103.094 362.712 102.385C363.424 101.677 364.384 101.279 365.388 101.277Z" fill="#263238"/>
<path d="M405.244 101.277H358.164C356.048 101.277 354.332 102.993 354.332 105.109V252.089C354.332 254.206 356.048 255.921 358.164 255.921H405.244C407.36 255.921 409.076 254.206 409.076 252.089V105.109C409.076 102.993 407.36 101.277 405.244 101.277Z" fill="#DADDDF"/>
<path d="M383.244 113.817H360.508V119.501H383.244V113.817Z" fill="#F4F4F4"/>
<path d="M399.26 124.673H376.524V130.357H399.26V124.673Z" fill="#F4F4F4"/>
<path d="M375.496 135.005H361.024V140.689H375.496V135.005Z" fill="#F4F4F4"/>
<path d="M398.232 135.005H383.76V140.689H398.232V135.005Z" fill="#F4F4F4"/>
<path d="M366.708 145.341H359.472V151.025H366.708V145.341Z" fill="#F4F4F4"/>
<path d="M383.76 145.341H371.876V151.025H383.76V145.341Z" fill="#F4F4F4"/>
<path d="M389.876 157.565H374.772V163.249H389.876V157.565Z" fill="#F4F4F4"/>
<path d="M399.984 157.565H392.344V163.249H399.984V157.565Z" fill="#F4F4F4"/>
<path d="M386.232 170.553H365.764V176.237H386.232V170.553Z" fill="#F4F4F4"/>
<path d="M404.388 170.553H392.504V176.237H404.388V170.553Z" fill="#F4F4F4"/>
<path d="M382.028 184.689H374.932V190.373H382.028V184.689Z" fill="#F4F4F4"/>
<path d="M406.86 184.689H388.904V190.373H406.86V184.689Z" fill="#F4F4F4"/>
<path d="M402.36 113.817H389.96V119.501H402.36V113.817Z" fill="#F4F4F4"/>
<path d="M360.4 101.277H402.976C404.588 101.277 406.136 101.918 407.276 103.058C408.416 104.198 409.06 105.745 409.06 107.357V255.921H354.332V107.361C354.332 105.749 354.972 104.202 356.112 103.061C357.252 101.92 358.8 101.279 360.412 101.277H360.4Z" fill="#DADDDF"/>
<path d="M383.244 113.817H360.508V119.501H383.244V113.817Z" fill="#F4F4F4"/>
<path d="M399.26 124.673H376.524V130.357H399.26V124.673Z" fill="#F4F4F4"/>
<path d="M375.496 135.005H361.024V140.689H375.496V135.005Z" fill="#F4F4F4"/>
<path d="M398.232 135.005H383.76V140.689H398.232V135.005Z" fill="#F4F4F4"/>
<path d="M366.708 145.341H359.472V151.025H366.708V145.341Z" fill="#F4F4F4"/>
<path d="M383.76 145.341H371.876V151.025H383.76V145.341Z" fill="#F4F4F4"/>
<path d="M389.876 157.565H374.772V163.249H389.876V157.565Z" fill="#F4F4F4"/>
<path d="M399.984 157.565H392.344V163.249H399.984V157.565Z" fill="#F4F4F4"/>
<path d="M386.232 170.553H365.764V176.237H386.232V170.553Z" fill="#F4F4F4"/>
<path d="M404.388 170.553H392.504V176.237H404.388V170.553Z" fill="#F4F4F4"/>
<path d="M382.028 184.689H374.932V190.373H382.028V184.689Z" fill="#F4F4F4"/>
<path d="M406.86 184.689H388.904V190.373H406.86V184.689Z" fill="#F4F4F4"/>
<path d="M402.36 113.817H389.96V119.501H402.36V113.817Z" fill="#F4F4F4"/>
<path opacity="0.3" d="M260.748 72.2053H337.148C338.656 72.2061 340.1 72.8057 341.164 73.8713C342.228 74.9373 342.828 76.3825 342.828 77.8893V193.777H260.748V72.2053Z" fill="#263238"/>
<path d="M255.148 72.2053H328.552C329.7 72.2053 330.8 72.6613 331.612 73.4725C332.428 74.2841 332.884 75.3849 332.884 76.5333V193.773H250.8V76.5333C250.8 75.3845 251.256 74.2825 252.069 73.4701C252.881 72.6577 253.983 72.2013 255.132 72.2013L255.148 72.2053Z" fill="#DADDDF"/>
<path d="M293.589 85.3973H270.853V91.0813H293.589V85.3973Z" fill="#F4F4F4"/>
<path d="M309.608 96.2493H286.872V101.933H309.608V96.2493Z" fill="#F4F4F4"/>
<path d="M285.84 106.589H271.368V112.273H285.84V106.589Z" fill="#F4F4F4"/>
<path d="M308.58 106.589H294.108V112.273H308.58V106.589Z" fill="#F4F4F4"/>
<path d="M294.105 116.921H282.221V122.605H294.105V116.921Z" fill="#F4F4F4"/>
<path d="M312.708 85.3973H300.308V91.0813H312.708V85.3973Z" fill="#F4F4F4"/>
<path d="M278.604 96.2493H255.868V101.933H278.604V96.2493Z" fill="#F4F4F4"/>
<path d="M329.248 106.589H314.775V112.273H329.248V106.589Z" fill="#F4F4F4"/>
<path d="M277.056 116.921H269.82V122.605H277.056V116.921Z" fill="#F4F4F4"/>
<path d="M319.163 116.921H307.279V122.605H319.163V116.921Z" fill="#F4F4F4"/>
<path d="M320.944 130.197H301.564V135.881H320.944V130.197Z" fill="#F4F4F4"/>
<path d="M280.228 144.105H270.672V149.789H280.228V144.105Z" fill="#F4F4F4"/>
<path d="M298.828 144.105H289.272V149.789H298.828V144.105Z" fill="#F4F4F4"/>
<path d="M317.857 154.441H303.385V160.125H317.857V154.441Z" fill="#F4F4F4"/>
<path d="M287.463 131.589H267.308V137.273H287.463V131.589Z" fill="#F4F4F4"/>
<path d="M277.056 116.921H269.82V122.605H277.056V116.921Z" fill="#F4F4F4"/>
<path d="M121.096 261.885C118.552 261.885 116.024 260.765 113.988 259.237C95.4639 245.381 82.0639 235.237 73.5559 219.853C65.2039 204.757 61.7159 185.321 61.1559 150.709L61.0439 143.645L68.0239 142.797C82.7759 141.025 108.452 127.649 117.104 122.641L121.268 120.241L125.268 122.877C148.572 138.157 174.14 142.805 174.396 142.849L181.096 144.049L180.844 150.849C179.64 182.345 174.8 204.861 165.56 221.669C157.212 236.901 146.42 245.009 136.908 252.157C134.024 254.325 131.308 256.653 128.66 258.861C126.544 260.629 123.86 261.881 121.104 261.881L121.096 261.885Z" fill="#444444"/>
<path opacity="0.2" d="M121.096 261.885C118.552 261.885 116.024 260.765 113.988 259.237C95.4639 245.381 82.0639 235.237 73.5559 219.853C65.2039 204.757 61.7159 185.321 61.1559 150.709L61.0439 143.645L68.0239 142.797C82.7759 141.025 108.452 127.649 117.104 122.641L121.268 120.241L125.268 122.877C148.572 138.157 174.14 142.805 174.396 142.849L181.096 144.049L180.844 150.849C179.64 182.345 174.8 204.861 165.56 221.669C157.212 236.901 146.42 245.009 136.908 252.157C134.024 254.325 131.308 256.653 128.66 258.861C126.544 260.629 123.86 261.881 121.104 261.881L121.096 261.885Z" fill="#1ABC9C"/>
<path d="M121.047 129.185C121.047 129.185 88.5792 147.985 68.9912 150.325C70.0632 216.093 81.8028 224.933 118.719 252.533C119.439 253.075 120.321 253.359 121.222 253.337C122.123 253.315 122.99 252.99 123.683 252.413C144.655 234.873 170.115 227.261 173.107 150.337C173.107 150.325 146.099 145.625 121.047 129.185ZM121.047 129.185C121.047 129.185 88.5792 147.985 68.9912 150.325C70.0632 216.093 81.8028 224.933 118.719 252.533C119.439 253.075 120.321 253.359 121.222 253.337C122.123 253.315 122.99 252.99 123.683 252.413C144.655 234.873 170.115 227.261 173.107 150.337C173.107 150.325 146.099 145.625 121.047 129.185ZM121.047 129.185C121.047 129.185 88.5792 147.985 68.9912 150.325C70.0632 216.093 81.8028 224.933 118.719 252.533C119.439 253.075 120.321 253.359 121.222 253.337C122.123 253.315 122.99 252.99 123.683 252.413C144.655 234.873 170.115 227.261 173.107 150.337C173.107 150.325 146.099 145.625 121.047 129.185Z" fill="#1ABC9C"/>
<path d="M148.236 175.945L121.876 206.601L114.9 214.701C114.687 214.949 114.412 215.133 114.102 215.236C113.793 215.339 113.462 215.356 113.144 215.285L106.188 206.621L93.7436 191.121C93.5264 190.852 93.3644 190.543 93.2668 190.21C93.1692 189.878 93.1384 189.53 93.1752 189.186C93.2124 188.842 93.3172 188.509 93.4832 188.205C93.6492 187.902 93.8736 187.634 94.1436 187.417L99.5996 183.057C100.144 182.619 100.84 182.416 101.534 182.491C102.229 182.566 102.865 182.913 103.304 183.457L114.104 196.889L139.004 167.957C139.392 167.51 139.941 167.234 140.532 167.191C141.122 167.147 141.706 167.339 142.156 167.725L148 172.801C148.447 173.187 148.723 173.735 148.768 174.325C148.812 174.914 148.62 175.497 148.236 175.945Z" fill="#B2B6BC"/>
<path d="M148.428 176.717L123.376 205.829L116.76 213.521C116.559 213.757 116.298 213.933 116.005 214.03C115.711 214.127 115.397 214.142 115.096 214.073L108.488 205.829L96.6758 191.129C96.2626 190.609 96.073 189.946 96.1478 189.286C96.223 188.627 96.5566 188.023 97.0758 187.609L102.232 183.469C102.749 183.053 103.41 182.859 104.07 182.93C104.731 183.001 105.335 183.332 105.752 183.849L115.984 196.601L139.6 169.129C139.968 168.704 140.489 168.442 141.05 168.401C141.611 168.359 142.165 168.542 142.592 168.909L148.192 173.741C148.617 174.105 148.881 174.622 148.925 175.18C148.97 175.738 148.791 176.291 148.428 176.717Z" fill="white"/>
<path d="M429.112 270.182H46.6152V321.546H429.112V270.182Z" fill="#3476DB"/>
<path opacity="0.65" d="M429.112 270.182H46.6152V321.546H429.112V270.182Z" fill="black"/>
<path d="M424.356 328.865C424.356 314.657 425.432 278.465 379.556 276.413C330.928 274.209 336.936 328.865 336.936 328.865H136.376C136.132 330.865 140.252 275.865 92.6643 275.865C75.7243 275.865 54.4123 280.237 49.2243 328.581C49.2243 328.581 38.0603 329.101 29.3323 326.737C26.7123 326.012 24.4519 324.346 22.9831 322.058C21.5147 319.771 20.9411 317.022 21.3723 314.337L21.9203 310.817L24.2323 295.973L26.7683 279.661L28.9763 265.457C29.2359 263.777 29.9095 262.188 30.9359 260.833C31.9623 259.478 33.3095 258.399 34.8563 257.693L66.0003 243.485C71.3587 241.037 77.0803 239.478 82.9403 238.869L142.4 232.685L144.244 231.537C144.244 231.537 170.244 220.377 204.204 201.245C211.084 197.346 218.455 194.387 226.12 192.445C229.663 191.511 233.286 190.911 236.94 190.653C266.992 189.013 371.34 188.469 377.9 190.653C384.46 192.837 430.904 203.221 415.604 209.781C415.604 209.781 440.096 227.865 449.024 241.201C450.852 243.921 452.028 246.445 452.224 248.577C452.872 255.939 452.88 263.343 452.252 270.705C452.256 270.797 452.244 270.889 452.224 270.977C452.224 270.977 458.784 269.885 458.224 283.545C461.512 303.185 450.036 327.773 424.356 328.865Z" fill="#3476DB"/>
<path opacity="0.5" d="M424.356 328.865C424.356 314.657 425.432 278.465 379.556 276.413C330.928 274.209 336.936 328.865 336.936 328.865H136.376C136.132 330.865 140.252 275.865 92.6643 275.865C75.7243 275.865 54.4123 280.237 49.2243 328.581C49.2243 328.581 38.0603 329.101 29.3323 326.737C26.7123 326.012 24.4519 324.346 22.9831 322.058C21.5147 319.771 20.9411 317.022 21.3723 314.337L21.9203 310.817L24.2323 295.973L26.7683 279.661L28.9763 265.457C29.2359 263.777 29.9095 262.188 30.9359 260.833C31.9623 259.478 33.3095 258.399 34.8563 257.693L66.0003 243.485C71.3587 241.037 77.0803 239.478 82.9403 238.869L142.4 232.685L144.244 231.537C144.244 231.537 170.244 220.377 204.204 201.245C211.084 197.346 218.455 194.387 226.12 192.445C229.663 191.511 233.286 190.911 236.94 190.653C266.992 189.013 371.34 188.469 377.9 190.653C384.46 192.837 430.904 203.221 415.604 209.781C415.604 209.781 440.096 227.865 449.024 241.201C450.852 243.921 452.028 246.445 452.224 248.577C452.872 255.939 452.88 263.343 452.252 270.705C452.256 270.797 452.244 270.889 452.224 270.977C452.224 270.977 458.784 269.885 458.224 283.545C461.512 303.185 450.036 327.773 424.356 328.865Z" fill="white"/>
<path opacity="0.3" d="M435.476 326.613L424.972 328.829C424.768 328.829 424.572 328.857 424.36 328.865C424.36 314.657 425.436 278.465 379.56 276.409C330.928 274.209 336.936 328.865 336.936 328.865H209.068L136.388 328.465C136.476 323.221 136.828 275.877 92.6837 275.877C75.8157 275.877 54.6237 280.213 49.3117 327.969L37.0877 327.901C37.0877 327.901 27.5237 261.601 93.1517 261.601C146.892 264.709 149.476 303.977 149.476 303.977H327.748C327.748 303.977 327.748 266.777 382.524 265.737C442.464 267.805 435.476 326.613 435.476 326.613Z" fill="black"/>
<path d="M93.3358 358.973C114.159 358.973 131.04 342.093 131.04 321.269C131.04 300.446 114.159 283.565 93.3358 283.565C72.5126 283.565 55.6318 300.446 55.6318 321.269C55.6318 342.093 72.5126 358.973 93.3358 358.973Z" fill="#444444"/>
<path d="M59.9043 321.03C60.0571 318.953 60.3919 316.893 60.9043 314.874C61.4051 312.848 62.0563 310.863 62.8523 308.934C64.4435 305.04 66.7499 301.479 69.6523 298.434C71.1299 296.93 72.7647 295.589 74.5283 294.434C76.3171 293.309 78.2115 292.362 80.1843 291.606C88.2151 288.862 96.9107 288.746 105.012 291.274L105.776 291.518L106.508 291.818C106.996 292.018 107.492 292.218 107.968 292.422L109.392 293.126C109.63 293.245 109.861 293.379 110.084 293.526L110.768 293.926C112.59 294.987 114.275 296.266 115.788 297.734C118.767 300.705 121.122 304.241 122.716 308.134C123.511 310.08 124.149 312.086 124.624 314.134C125.11 316.164 125.403 318.236 125.5 320.322C125.053 316.195 123.955 312.165 122.248 308.382C120.603 304.601 118.221 301.186 115.24 298.338L114.092 297.314L112.872 296.386C112.472 296.062 112.032 295.802 111.612 295.506L110.984 295.066L110.32 294.686L109.656 294.286C109.436 294.158 109.208 294.038 108.98 293.926L107.6 293.262C107.136 293.05 106.652 292.862 106.18 292.69L105.464 292.41C105.224 292.326 104.976 292.258 104.732 292.182L103.264 291.734L101.768 291.382L101.004 291.21C100.752 291.158 100.5 291.126 100.24 291.082L98.7123 290.834C98.2083 290.754 97.6923 290.73 97.1843 290.674C96.6763 290.618 96.1643 290.566 95.6563 290.542L94.1283 290.498C93.6163 290.498 93.1083 290.45 92.6003 290.498C88.4951 290.504 84.4195 291.192 80.5403 292.534C76.6671 293.917 73.1451 296.135 70.2243 299.03C67.3079 301.949 64.9623 305.386 63.3083 309.166C61.5939 312.931 60.4467 316.929 59.9043 321.03Z" fill="#DADDDF"/>
<path opacity="0.5" d="M93.3364 347.497C107.822 347.497 119.564 335.755 119.564 321.269C119.564 306.784 107.822 295.041 93.3364 295.041C78.8508 295.041 67.1084 306.784 67.1084 321.269C67.1084 335.755 78.8508 347.497 93.3364 347.497Z" fill="white"/>
<path d="M93.3367 345.885C106.932 345.885 117.953 334.865 117.953 321.27C117.953 307.675 106.932 296.654 93.3367 296.654C79.7415 296.654 68.7207 307.675 68.7207 321.27C68.7207 334.865 79.7415 345.885 93.3367 345.885Z" fill="white"/>
<path d="M113.66 321.333C113.656 326.583 111.612 331.627 107.961 335.399C104.309 339.171 99.3353 341.377 94.0881 341.553C93.8601 341.553 93.6361 341.577 93.4121 341.577C90.7529 341.581 88.1189 341.058 85.6613 340.041C83.2037 339.025 80.9709 337.534 79.0901 335.654C77.2097 333.774 75.7181 331.541 74.7013 329.083C73.6845 326.626 73.1621 323.993 73.1641 321.333V320.933C73.2345 317.527 74.1629 314.194 75.8633 311.242C77.5641 308.29 79.9817 305.815 82.8929 304.045C85.8045 302.275 89.1149 301.269 92.5185 301.119C95.9217 300.969 99.3081 301.679 102.364 303.185C104.26 304.114 105.996 305.34 107.504 306.817C109.452 308.699 111.002 310.955 112.06 313.449C113.117 315.943 113.662 318.624 113.66 321.333Z" fill="black"/>
<path d="M108.464 307.825C108.148 307.477 107.824 307.133 107.488 306.805C106.177 305.533 104.697 304.448 103.088 303.581L96.5562 311.501V301.333C95.507 301.169 94.4466 301.085 93.3842 301.081C92.1538 301.084 90.9262 301.198 89.7162 301.421V313.117L81.2402 305.161C79.3946 306.53 77.8038 308.213 76.5402 310.133L84.5082 317.609H73.5002C73.2954 318.705 73.1818 319.815 73.1602 320.929V321.329C73.1634 322.367 73.245 323.403 73.4042 324.429H85.9082L77.8242 334.237C79.287 336.005 81.0386 337.513 83.0042 338.697L89.7402 330.533V341.229C90.9498 341.457 92.1778 341.569 93.4082 341.573C93.6362 341.573 93.8602 341.573 94.0842 341.573C94.9206 341.541 95.7538 341.461 96.5802 341.333V328.933L105.636 337.457C107.462 336.066 109.041 334.379 110.308 332.465L101.772 324.441H113.392C113.742 322.172 113.703 319.861 113.276 317.605H100.4L108.464 307.825Z" fill="white"/>
<path d="M93.1484 323.613C94.5756 323.613 95.7324 322.456 95.7324 321.029C95.7324 319.602 94.5756 318.445 93.1484 318.445C91.7212 318.445 90.5645 319.602 90.5645 321.029C90.5645 322.456 91.7212 323.613 93.1484 323.613Z" fill="black"/>
<path d="M406.784 347.929C421.508 333.204 421.508 309.331 406.784 294.607C392.06 279.883 368.188 279.883 353.464 294.607C338.74 309.331 338.74 333.204 353.464 347.929C368.188 362.653 392.06 362.653 406.784 347.929Z" fill="#444444"/>
<path d="M346.68 321.03C346.832 318.953 347.164 316.893 347.676 314.874C348.176 312.846 348.828 310.858 349.62 308.926C351.208 305.031 353.516 301.469 356.42 298.426C357.896 296.922 359.528 295.581 361.292 294.426C363.08 293.301 364.976 292.354 366.952 291.598C374.984 288.854 383.68 288.738 391.78 291.266C392.032 291.346 392.284 291.422 392.544 291.51L393.28 291.81C393.768 292.01 394.264 292.21 394.74 292.414L396.164 293.118C396.4 293.238 396.632 293.371 396.856 293.518L397.536 293.918C399.356 294.995 401.036 296.29 402.54 297.774C405.52 300.744 407.876 304.28 409.472 308.174C410.264 310.11 410.9 312.106 411.38 314.142C411.868 316.167 412.164 318.233 412.272 320.314C411.824 316.188 410.728 312.16 409.02 308.378C407.376 304.594 404.992 301.178 402.008 298.33L400.86 297.306L399.66 296.366C399.26 296.042 398.82 295.782 398.404 295.486L397.772 295.058L397.104 294.658L396.44 294.258C396.224 294.13 395.996 294.01 395.764 293.902L394.384 293.238C393.916 293.026 393.432 292.858 392.956 292.666L392.248 292.386C392.004 292.302 391.76 292.234 391.512 292.158L390.048 291.706L388.552 291.354L387.808 291.178C387.556 291.126 387.3 291.094 387.044 291.05L385.516 290.802C385.012 290.722 384.496 290.698 383.988 290.642C383.48 290.586 382.964 290.534 382.46 290.514L380.932 290.466C380.42 290.466 379.904 290.422 379.404 290.466C375.296 290.469 371.22 291.155 367.336 292.494C363.464 293.877 359.944 296.095 357.024 298.99C354.104 301.907 351.76 305.345 350.108 309.126C348.38 312.902 347.224 316.914 346.68 321.03Z" fill="#DADDDF"/>
<path opacity="0.5" d="M380.125 347.497C394.609 347.497 406.352 335.755 406.352 321.27C406.352 306.785 394.609 295.042 380.125 295.042C365.641 295.042 353.896 306.785 353.896 321.27C353.896 335.755 365.641 347.497 380.125 347.497Z" fill="white"/>
<path d="M404.436 325.234C406.616 311.815 397.504 299.17 384.084 296.992C370.664 294.813 358.02 303.926 355.84 317.345C353.664 330.765 362.776 343.409 376.196 345.589C389.616 347.765 402.26 338.653 404.436 325.234Z" fill="white"/>
<path d="M400.428 321.333C400.432 326.585 398.392 331.633 394.74 335.407C391.088 339.181 386.108 341.385 380.86 341.553C380.636 341.553 380.412 341.577 380.184 341.577C375.832 341.581 371.596 340.184 368.104 337.589C364.608 334.995 362.044 331.344 360.792 327.177C360.22 325.289 359.932 323.327 359.936 321.353C359.928 321.22 359.928 321.087 359.936 320.953C360.004 317.547 360.932 314.213 362.632 311.261C364.332 308.308 366.752 305.832 369.664 304.062C372.576 302.293 375.884 301.286 379.288 301.137C382.692 300.987 386.08 301.698 389.136 303.205C391.032 304.134 392.768 305.361 394.276 306.837C396.224 308.716 397.772 310.968 398.828 313.459C399.884 315.949 400.428 318.628 400.428 321.333Z" fill="black"/>
<path d="M395.252 307.825C394.936 307.477 394.616 307.133 394.276 306.805C392.964 305.534 391.484 304.449 389.876 303.581L383.34 311.513V301.353C382.288 301.189 381.228 301.105 380.164 301.101C378.936 301.103 377.708 301.216 376.5 301.441V313.137L368.008 305.173C366.172 306.545 364.584 308.223 363.32 310.133L371.296 317.605H360.284C360.08 318.702 359.968 319.814 359.948 320.929C359.94 321.063 359.94 321.196 359.948 321.329C359.948 322.369 360.028 323.407 360.188 324.433H372.7L364.612 334.237C366.08 336.009 367.836 337.519 369.812 338.701L376.548 330.533V341.229C377.756 341.453 378.984 341.569 380.212 341.573C380.436 341.573 380.66 341.573 380.888 341.549C381.724 341.521 382.556 341.445 383.384 341.313V328.933L392.468 337.457C394.296 336.07 395.876 334.382 397.136 332.465L388.608 324.441H400.208C400.364 323.415 400.44 322.379 400.44 321.341C400.44 320.088 400.324 318.837 400.092 317.605H387.176L395.252 307.825Z" fill="white"/>
<path d="M379.94 323.614C381.368 323.614 382.524 322.457 382.524 321.03C382.524 319.603 381.368 318.446 379.94 318.446C378.512 318.446 377.356 319.603 377.356 321.03C377.356 322.457 378.512 323.614 379.94 323.614Z" fill="black"/>
<path d="M161.908 237.942C161.908 237.942 217.096 195.334 247.7 194.774C278.304 194.214 344.416 194.774 344.416 194.774C344.416 194.774 359.696 213.354 362.992 219.362C356.436 225.362 337.312 236.302 337.312 236.302L161.908 237.942Z" fill="#21252B"/>
<path d="M179.396 233.026H263.544L272.288 199.15C272.288 199.15 243.328 196.414 224.204 205.15C205.08 213.886 179.396 233.026 179.396 233.026Z" fill="#3476DB"/>
<path d="M282.124 198.602L278.3 233.026L334.032 231.386L358.076 217.726L342.772 198.602H282.124Z" fill="#3476DB"/>
<path d="M179.396 233.026H263.544L272.288 199.15C272.288 199.15 243.328 196.414 224.204 205.15C205.08 213.886 179.396 233.026 179.396 233.026Z" fill="#E8F4FC"/>
<path d="M282.124 198.602L278.3 233.026L334.032 231.386L358.076 217.726L342.772 198.602H282.124Z" fill="#E8F4FC"/>
<path d="M210.08 203.937C203.9 207.269 157.224 235.261 157.224 235.261L150.8 230.533C157.228 226.465 186.684 212.533 207.336 200.109C209.364 201.245 211.932 202.933 210.08 203.937Z" fill="#3476DB"/>
<path d="M446.216 236.718C441.464 236.694 434.616 236.214 431.568 233.846C426.652 230.026 412.444 218.002 412.444 218.002C412.444 218.002 412.1 211.846 416.016 209.546C416.748 210.086 435.92 224.338 446.216 236.718Z" fill="#3476DB"/>
<path d="M210.08 203.937C203.9 207.269 157.224 235.261 157.224 235.261L150.8 230.533C157.228 226.465 186.684 212.533 207.336 200.109C209.364 201.245 211.932 202.933 210.08 203.937Z" fill="#E8F4FC"/>
<path d="M446.216 236.718C441.464 236.694 434.616 236.214 431.568 233.846C426.652 230.026 412.444 218.002 412.444 218.002C412.444 218.002 412.1 211.846 416.016 209.546C416.748 210.086 435.92 224.338 446.216 236.718Z" fill="#E8F4FC"/>
<path d="M209.024 224.933C210.376 224.277 211.74 223.653 213.1 223.021L217.18 221.114C219.916 219.87 222.672 218.666 225.416 217.442C228.16 216.218 230.928 215.041 233.696 213.877L237.852 212.133C239.248 211.565 240.652 210.986 242.032 210.442C240.68 211.098 239.316 211.721 237.956 212.349L233.872 214.233C231.136 215.477 228.384 216.681 225.64 217.905C222.896 219.129 220.128 220.306 217.356 221.47L213.2 223.209C211.808 223.781 210.42 224.369 209.024 224.933Z" fill="#F4F4F4"/>
<path d="M225.376 221.418C226.364 220.922 227.376 220.458 228.356 219.974L231.356 218.586C233.356 217.658 235.356 216.766 237.384 215.878C239.412 214.99 241.424 214.118 243.464 213.278L246.52 212.018C247.544 211.618 248.564 211.198 249.6 210.818C248.608 211.314 247.6 211.782 246.62 212.262L243.62 213.654C241.62 214.582 239.62 215.47 237.592 216.362C235.564 217.254 233.552 218.114 231.512 218.958L228.456 220.222C227.432 220.61 226.4 221.03 225.376 221.418Z" fill="#F4F4F4"/>
<path d="M291.7 223.885C293.052 223.229 294.42 222.601 295.776 221.977L299.88 220.101C302.612 218.857 305.364 217.657 308.112 216.429C310.86 215.201 313.62 214.029 316.388 212.865L320.548 211.125C321.94 210.561 323.324 209.977 324.728 209.429C323.372 210.089 322.008 210.713 320.648 211.341L316.548 213.217C313.812 214.457 311.06 215.661 308.316 216.889C305.572 218.117 302.804 219.289 300.036 220.449L295.876 222.189C294.484 222.757 293.096 223.333 291.7 223.885Z" fill="#F4F4F4"/>
<path d="M308.057 220.382C309.045 219.886 310.057 219.426 311.033 218.942L314.033 217.55C316.033 216.622 318.033 215.73 320.06 214.842C322.088 213.954 324.1 213.082 326.14 212.242L329.196 210.982C330.224 210.582 331.24 210.182 332.276 209.782C331.292 210.282 330.276 210.746 329.296 211.226L326.3 212.622C324.3 213.546 322.3 214.438 320.268 215.326C318.237 216.214 316.229 217.082 314.189 217.926L311.133 219.186C310.109 219.582 309.089 219.994 308.057 220.382Z" fill="#F4F4F4"/>
<path opacity="0.3" d="M255.352 249.961H238.412C235.997 249.961 234.04 251.919 234.04 254.333C234.04 256.748 235.997 258.705 238.412 258.705H255.352C257.766 258.705 259.724 256.748 259.724 254.333C259.724 251.919 257.766 249.961 255.352 249.961Z" stroke="#263238" stroke-miterlimit="10"/>
<path opacity="0.3" d="M358.808 249.961H343.68C341.368 249.961 339.496 251.835 339.496 254.145V254.521C339.496 256.832 341.368 258.705 343.68 258.705H358.808C361.12 258.705 362.992 256.832 362.992 254.521V254.145C362.992 251.835 361.12 249.961 358.808 249.961Z" stroke="#263238" stroke-miterlimit="10"/>
<path d="M37.3236 321.545C37.1368 319.598 37.054 317.642 37.0756 315.685C37.0956 313.729 37.1676 311.769 37.3596 309.821C37.698 305.918 38.3888 302.053 39.4236 298.273C40.4556 294.483 41.8932 290.815 43.7116 287.333C45.5412 283.863 47.8016 280.637 50.4396 277.733C51.1116 277.021 51.7516 276.269 52.4916 275.621L53.5676 274.601C53.918 274.258 54.288 273.935 54.6756 273.633C55.4396 273.021 56.2036 272.401 56.9876 271.801L59.4276 270.153C59.8316 269.875 60.2508 269.62 60.6836 269.389L61.9676 268.661C62.3956 268.421 62.8156 268.169 63.2516 267.945L64.5836 267.313L65.9196 266.685L66.5876 266.373C66.8076 266.273 67.0396 266.193 67.2716 266.105L70.0196 265.057C73.7336 263.78 77.556 262.843 81.4396 262.257C82.4076 262.109 83.3756 261.933 84.3516 261.817C85.3276 261.701 86.2996 261.601 87.2756 261.525C89.2304 261.373 91.1916 261.299 93.1596 261.301C97.0848 261.318 101.002 261.657 104.872 262.313C105.84 262.481 106.804 262.657 107.764 262.869L110.624 263.557C111.1 263.677 111.58 263.773 112.052 263.913L113.46 264.349C114.392 264.645 115.34 264.905 116.26 265.241C119.96 266.565 123.514 268.267 126.864 270.321L129.316 271.921L131.648 273.721C133.158 274.976 134.588 276.326 135.928 277.761C138.596 280.638 140.882 283.847 142.728 287.309C144.575 290.791 146.022 294.471 147.044 298.277C148.047 302.067 148.696 305.94 148.984 309.849C149.292 313.754 149.223 317.679 148.776 321.569C149.18 317.679 149.208 313.758 148.86 309.861C148.528 305.968 147.838 302.113 146.8 298.345C145.759 294.583 144.299 290.95 142.448 287.513C139.671 282.357 135.908 277.797 131.372 274.093L129.08 272.309L126.628 270.681C123.302 268.649 119.774 266.97 116.1 265.669C115.184 265.341 114.24 265.085 113.3 264.789L111.904 264.357C111.436 264.221 110.956 264.125 110.484 264.009L107.676 263.333C106.724 263.117 105.764 262.933 104.808 262.785C100.961 262.144 97.0676 261.819 93.1676 261.813C91.2184 261.813 89.2728 261.884 87.3316 262.025C86.3556 262.097 85.3876 262.193 84.4196 262.309C83.4516 262.425 82.5076 262.593 81.5276 262.737C77.672 263.315 73.8764 264.24 70.1876 265.501L67.4356 266.533C67.2076 266.621 66.9756 266.697 66.7556 266.797L66.0956 267.105L64.7996 267.733L63.4796 268.353C63.0476 268.577 62.6276 268.829 62.2036 269.061L60.9316 269.781C60.5028 270.015 60.0864 270.27 59.6836 270.545L57.2636 272.177L54.9716 273.985C54.5844 274.279 54.216 274.595 53.8676 274.933L52.7916 275.925C52.0556 276.561 51.4196 277.297 50.7476 278.005C48.1064 280.87 45.8392 284.059 43.9996 287.493C42.1684 290.942 40.7148 294.577 39.6636 298.337C38.5896 302.094 37.8584 305.941 37.4796 309.829C37.2716 311.773 37.1756 313.725 37.1356 315.681C37.09 317.638 37.1528 319.596 37.3236 321.545Z" fill="#F4F4F4"/>
<path d="M325.784 321.546C325.44 317.834 325.46 314.098 325.836 310.39C326.188 306.676 326.892 303.003 327.936 299.422C328.98 295.83 330.432 292.369 332.26 289.106C334.096 285.847 336.352 282.842 338.964 280.166C341.596 277.497 344.552 275.171 347.764 273.242C351.008 271.381 354.428 269.845 357.976 268.658L360.648 267.894L361.996 267.514L363.364 267.21L366.104 266.614C367.02 266.438 367.948 266.322 368.868 266.178L370.252 265.97C370.716 265.898 371.176 265.826 371.644 265.782C372.572 265.674 373.5 265.59 374.444 265.522C376.312 265.386 378.176 265.318 380.044 265.318C383.78 265.333 387.512 265.634 391.204 266.218L392.584 266.45L393.96 266.714L396.692 267.342L398.056 267.658C398.508 267.766 398.952 267.918 399.4 268.058L402.072 268.858C405.616 270.058 409.04 271.593 412.292 273.442C415.52 275.343 418.496 277.639 421.152 280.278C423.796 282.913 426.084 285.887 427.952 289.122C429.8 292.378 431.256 295.841 432.292 299.438C433.328 303.024 433.996 306.705 434.292 310.426C434.612 314.141 434.552 317.879 434.104 321.582C434.508 317.879 434.528 314.145 434.164 310.438C433.832 306.733 433.128 303.072 432.06 299.51C431.012 295.942 429.544 292.51 427.692 289.286C425.824 286.076 423.536 283.129 420.892 280.522C418.24 277.931 415.284 275.67 412.092 273.79C408.856 271.96 405.452 270.443 401.928 269.258L399.252 268.458C398.812 268.334 398.368 268.186 397.92 268.078L396.564 267.77L393.852 267.15L392.484 266.894L391.108 266.666C387.444 266.091 383.74 265.8 380.032 265.794C378.164 265.794 376.312 265.858 374.468 265.986C373.544 266.05 372.62 266.134 371.7 266.238C371.236 266.278 370.78 266.346 370.32 266.418L368.944 266.622C368.028 266.766 367.108 266.878 366.196 267.054L363.476 267.638L362.116 267.934L360.78 268.314L358.108 269.078C354.6 270.253 351.212 271.77 348 273.606C344.82 275.514 341.888 277.804 339.268 280.426C336.656 283.069 334.404 286.044 332.568 289.274C330.732 292.505 329.264 295.933 328.2 299.494C327.12 303.052 326.38 306.704 325.984 310.402C325.556 314.101 325.492 317.833 325.784 321.546Z" fill="#F4F4F4"/>
<path opacity="0.3" d="M32.9554 301.333V306.797C32.963 308.038 32.5858 309.25 31.8762 310.267C31.1666 311.284 30.159 312.056 28.9922 312.477C27.8258 312.898 26.5574 312.947 25.3618 312.618C24.1658 312.289 23.1018 311.597 22.3154 310.637L24.6274 295.789C25.5406 295.405 26.535 295.253 27.5214 295.346C28.5078 295.439 29.4554 295.776 30.2802 296.325C31.105 296.874 31.781 297.619 32.2478 298.493C32.7146 299.367 32.9578 300.343 32.9554 301.333Z" fill="#263238"/>
<path d="M47.1631 273.913V279.469H27.1631L29.3711 265.261H38.5111C40.8055 265.263 43.0055 266.175 44.6279 267.797C46.2503 269.419 47.1623 271.619 47.1631 273.913Z" fill="#3476DB"/>
<path d="M47.1679 273.909V279.473H39.5479C41.3599 275.409 41.2359 270.597 40.1999 265.437C42.1619 265.826 43.9287 266.883 45.1991 268.427C46.4695 269.972 47.1655 271.909 47.1679 273.909Z" fill="#DADDDF"/>
<path opacity="0.1" d="M448.8 269.733H428.912L422.18 250.533C420.696 246.285 423.516 241.705 427.616 241.705H442.108C443.648 241.699 445.14 242.249 446.308 243.253C447.132 243.951 447.756 244.851 448.124 245.865C448.476 246.781 448.7 247.741 448.788 248.717C449.34 255.712 449.344 262.739 448.8 269.733Z" fill="black"/>
<path d="M448.832 268.325H431.056L425.056 251.125C423.724 247.333 426.256 243.237 429.912 243.237H442.864C444.236 243.237 445.564 243.73 446.604 244.625C447.328 245.252 447.88 246.055 448.204 246.957C448.52 247.775 448.72 248.633 448.8 249.505C449.3 255.768 449.308 262.061 448.832 268.325Z" fill="#3476DB"/>
<path opacity="0.85" d="M47.1631 273.913V279.469H27.1631L29.3711 265.261H38.5111C40.8055 265.263 43.0055 266.175 44.6279 267.797C46.2503 269.419 47.1623 271.619 47.1631 273.913Z" fill="white"/>
<path opacity="0.85" d="M448.832 268.325H431.056L425.056 251.125C423.724 247.333 426.256 243.237 429.912 243.237H442.864C444.236 243.237 445.564 243.73 446.604 244.625C447.328 245.252 447.88 246.055 448.204 246.957C448.52 247.775 448.72 248.633 448.8 249.505C449.3 255.768 449.308 262.061 448.832 268.325Z" fill="white"/>
<path d="M149.34 304.057L171.132 303.933L192.92 303.861L236.496 303.801L280.076 303.861L301.86 303.933L323.652 304.057L301.86 304.185L280.076 304.257L236.496 304.317L192.92 304.257L171.132 304.185L149.34 304.057Z" fill="#B2B6BB"/>
<path d="M429.384 286.849C431.612 286.769 433.844 286.729 436.076 286.701C438.308 286.673 440.54 286.673 442.772 286.657C445.004 286.641 447.232 286.657 449.464 286.701L452.812 286.753C453.928 286.785 455.04 286.801 456.156 286.849C455.04 286.889 453.928 286.909 452.812 286.941L449.464 286.993C447.232 287.025 445.004 287.025 442.772 287.037C440.54 287.049 438.308 287.037 436.076 286.993C433.844 286.949 431.6 286.933 429.384 286.849Z" fill="#61656D"/>
<path d="M346.328 194.501C349.064 194.657 351.804 194.849 354.54 195.057C357.276 195.265 360.008 195.521 362.736 195.821C368.2 196.369 373.648 197.021 379.072 197.909C380.428 198.125 381.776 198.389 383.128 198.629C383.804 198.757 384.472 198.905 385.128 199.029C385.784 199.153 386.48 199.293 387.128 199.469C389.804 200.1 392.436 200.911 395.004 201.897C400.18 203.729 405.256 205.817 410.228 208.161C407.736 207.017 405.184 205.997 402.628 205.009C400.072 204.021 397.5 203.077 394.908 202.173C392.344 201.222 389.72 200.433 387.056 199.809C386.388 199.637 385.712 199.521 385.056 199.377C384.4 199.233 383.716 199.093 383.056 198.977C381.708 198.745 380.384 198.485 379.008 198.277C373.596 197.381 368.156 196.713 362.704 196.101C359.98 195.789 357.248 195.521 354.52 195.253C351.792 194.985 349.06 194.721 346.328 194.501Z" fill="#61656D"/>
<path d="M161.635 237.669C160.406 238.322 159.273 239.143 158.271 240.109C157.763 240.583 157.278 241.082 156.819 241.605C156.359 242.121 155.951 242.689 155.519 243.225C153.896 245.483 152.641 247.983 151.799 250.633L151.463 251.617C151.355 251.945 151.287 252.289 151.199 252.625L150.711 254.625L150.367 256.677L150.199 257.733C150.135 258.073 150.131 258.421 150.091 258.769C149.991 260.149 149.811 261.529 149.843 262.921C149.875 264.313 149.807 265.693 149.843 267.089C149.955 272.661 150.027 278.233 150.007 283.809C150.007 286.593 149.974 289.379 149.907 292.165C149.835 294.965 149.755 297.737 149.619 300.521C149.691 297.721 149.715 294.949 149.719 292.161C149.723 289.373 149.719 286.593 149.719 283.809C149.679 278.237 149.607 272.665 149.467 267.101C149.415 265.709 149.467 264.301 149.467 262.897C149.467 261.493 149.623 260.097 149.735 258.713C149.771 258.365 149.779 258.013 149.843 257.673L150.019 256.637L150.375 254.569L150.895 252.537C150.991 252.201 151.059 251.853 151.175 251.525L151.527 250.537C152.41 247.876 153.707 245.37 155.371 243.113C155.823 242.577 156.243 242.017 156.719 241.513C157.191 240.997 157.689 240.505 158.211 240.041C159.236 239.094 160.389 238.296 161.635 237.669Z" fill="#61656D"/>
<path d="M50.4199 250.573L74.5719 248.461C82.6199 247.752 90.6663 247.021 98.7119 246.269C106.76 245.541 114.804 244.805 122.84 243.977C124.85 243.777 126.858 243.563 128.864 243.333C130.864 243.109 132.864 242.893 134.888 242.645L137.896 242.293C138.896 242.177 139.896 242.029 140.9 241.913C141.904 241.797 142.9 241.665 143.896 241.485L146.884 240.969C138.948 242.497 130.884 243.345 122.884 244.245C114.884 245.145 106.796 245.881 98.7759 246.645C90.7559 247.409 82.6759 248.045 74.6199 248.713L62.5439 249.685L50.4199 250.573Z" fill="#61656D"/>
<path d="M269.292 237.941C268.082 239.881 267.112 241.96 266.4 244.133C265.676 246.289 265.164 248.51 264.872 250.765C264.8 251.325 264.716 251.889 264.688 252.457C264.66 253.025 264.572 253.601 264.576 254.153L264.54 255.857V264.409L264.496 278.097L264.444 284.937L264.356 291.797L264.272 284.933L264.22 278.093L264.168 264.389V257.549C264.113 255.259 264.247 252.969 264.568 250.701C265.256 246.193 266.74 241.733 269.292 237.941Z" fill="#61656D"/>
<path d="M191.935 236.061L181.423 236.353C180.039 236.353 178.951 233.873 178.991 230.853C179.031 228.157 179.971 225.889 181.199 225.481L191.199 222.317L191.935 236.061Z" fill="#61656D"/>
<path d="M184.616 228.53C186.708 228.077 188.392 227.653 188.377 227.585C188.362 227.515 186.654 227.827 184.562 228.28C182.47 228.733 180.786 229.156 180.801 229.225C180.816 229.294 182.524 228.983 184.616 228.53Z" fill="#F4F4F4"/>
<path d="M55.6836 298.037C55.6836 298.037 63.9516 272.717 91.8556 274.785" stroke="#F4F4F4" stroke-width="1.35" stroke-miterlimit="10"/>
<path d="M180.996 242.485L190.036 242.361L199.08 242.289L217.168 242.229L235.252 242.285L244.296 242.361L253.34 242.485L244.296 242.613L235.252 242.685L217.168 242.745L199.08 242.685L190.036 242.613L180.996 242.485Z" fill="#F4F4F4"/>
<path d="M281.76 242.486H329.296" stroke="#F4F4F4" stroke-width="1.35" stroke-miterlimit="10"/>
<path d="M461.284 346.061C457.52 348.901 457.912 351.149 457.952 351.205C457.992 351.261 463.492 352.197 467.26 349.357C471.028 346.517 472.96 342.741 471.588 340.917C470.216 339.093 465.048 343.221 461.284 346.061Z" fill="#1ABC9C"/>
<path d="M448.264 339.945C450.88 341.917 451.32 345.773 451.272 345.809C451.224 345.845 447.424 346.501 444.804 344.529C442.184 342.557 441.648 340.797 442.604 339.533C443.56 338.269 445.648 337.969 448.264 339.945Z" fill="#1ABC9C"/>
<path d="M462.856 332.803C463.932 327.213 462.755 322.287 460.227 321.8C457.699 321.314 454.78 325.452 453.704 331.042C452.628 336.633 453.803 341.557 456.331 342.045C458.859 342.529 461.78 338.393 462.856 332.803Z" fill="#1ABC9C"/>
<path d="M458.256 329.073L453.672 359.777H453.628C453.8 358.109 454.264 356.485 455 354.977C455.72 353.469 456.684 352.089 457.856 350.893C457.992 350.737 458.14 350.589 458.3 350.457L458.768 350.037L459.232 349.637L459.736 349.237C460.076 348.997 460.412 348.745 460.756 348.513L461.844 347.889L462.388 347.581L462.96 347.325L464.104 346.821C464.868 346.529 465.704 346.301 466.476 346.021C465.676 346.289 464.876 346.521 464.108 346.821L462.96 347.325L462.392 347.581L461.852 347.893L460.764 348.513C460.416 348.749 460.088 349.005 459.748 349.245L459.244 349.625L458.78 350.045L458.316 350.445C458.156 350.581 458.008 350.725 457.868 350.881C456.708 352.081 455.748 353.461 455.032 354.969C454.296 356.465 453.836 358.081 453.672 359.741H453.624L458.256 329.073Z" fill="black"/>
<path d="M453.52 359.673C453.912 357.921 454.076 356.121 454 354.325C453.94 352.529 453.572 350.753 452.908 349.081C452.252 347.401 451.204 345.905 449.852 344.713C448.484 343.545 446.892 342.665 445.172 342.129C446.896 342.657 448.496 343.529 449.872 344.693C451.232 345.881 452.288 347.381 452.952 349.061C453.604 350.741 453.96 352.521 454.004 354.325C454.08 356.121 453.916 357.921 453.52 359.673Z" fill="black"/>
<path d="M62.2432 62.4133C62.2432 62.4133 69.5992 48.9333 88.2192 55.8933C89.6588 56.4425 91.2008 56.6705 92.7376 56.5609C94.2744 56.4513 95.7688 56.0065 97.1156 55.2585C98.4624 54.5105 99.6292 53.4769 100.534 52.2301C101.44 50.9833 102.061 49.5537 102.355 48.0413C103.763 40.5573 105.027 32.9853 114.411 34.2893C130.031 36.4773 120.347 61.1573 133.151 60.2173C137.423 59.9013 140.095 59.1773 142.179 58.3453C149.784 55.3569 158.24 55.3657 165.839 58.3693C173.711 61.4253 182.191 64.9013 182.191 64.9013L62.2432 62.4133Z" fill="white"/>
<path d="M374.044 74.4093C374.044 74.4093 379.848 63.7773 394.528 69.2733C396.588 70.0605 398.876 69.9969 400.892 69.0969C402.904 68.1969 404.48 66.5337 405.268 64.4733C405.44 64.0189 405.576 63.5505 405.668 63.0733C406.78 57.1693 407.784 51.1973 415.18 52.2293C427.5 53.9573 419.856 73.4293 429.98 72.6853C433.352 72.4373 435.46 71.8613 437.104 71.2053C443.104 68.8529 449.772 68.8613 455.768 71.2293C461.98 73.6293 468.668 76.3813 468.668 76.3813L374.044 74.4093Z" fill="white"/>
<defs>
<linearGradient id="paint0_linear_344_7281" x1="240.007" y1="0.182663" x2="240.007" y2="360.133" gradientUnits="userSpaceOnUse">
<stop stop-color="#07A5EC"/>
<stop offset="0.997222" stop-color="#3476DB"/>
</linearGradient>
</defs>
</svg>
