<svg width="50" height="50" viewBox="0 0 50 50" fill="none" xmlns="http://www.w3.org/2000/svg">
<path d="M35.9375 20.3125V7.8125C35.9375 6.5693 35.4436 5.37701 34.5646 4.49794C33.6855 3.61886 32.4932 3.125 31.25 3.125H9.375C8.1318 3.125 6.93951 3.61886 6.06044 4.49794C5.18136 5.37701 4.6875 6.5693 4.6875 7.8125V42.1875C4.6875 43.4307 5.18136 44.623 6.06044 45.5021C6.93951 46.3811 8.1318 46.875 9.375 46.875H31.25C32.4932 46.875 33.6855 46.3811 34.5646 45.5021C35.4436 44.623 35.9375 43.4307 35.9375 42.1875V31.25C35.1087 31.25 34.3138 31.5792 33.7278 32.1653C33.1417 32.7513 32.8125 33.5462 32.8125 34.375V42.1875C32.8125 42.6019 32.6479 42.9993 32.3549 43.2924C32.0618 43.5854 31.6644 43.75 31.25 43.75H9.375C8.9606 43.75 8.56317 43.5854 8.27015 43.2924C7.97712 42.9993 7.8125 42.6019 7.8125 42.1875V7.8125C7.8125 7.3981 7.97712 7.00067 8.27015 6.70765C8.56317 6.41462 8.9606 6.25 9.375 6.25H31.25C31.6644 6.25 32.0618 6.41462 32.3549 6.70765C32.6479 7.00067 32.8125 7.3981 32.8125 7.8125V23.4375C33.6413 23.4375 34.4362 23.1083 35.0222 22.5222C35.6083 21.9362 35.9375 21.1413 35.9375 20.3125Z" fill="#1ABC9C"/>
<path d="M28.125 10.9375H12.5C12.0856 10.9375 11.6882 11.1021 11.3951 11.3951C11.1021 11.6882 10.9375 12.0856 10.9375 12.5C10.9375 12.9144 11.1021 13.3118 11.3951 13.6049C11.6882 13.8979 12.0856 14.0625 12.5 14.0625H28.125C28.5394 14.0625 28.9368 13.8979 29.2299 13.6049C29.5229 13.3118 29.6875 12.9144 29.6875 12.5C29.6875 12.0856 29.5229 11.6882 29.2299 11.3951C28.9368 11.1021 28.5394 10.9375 28.125 10.9375ZM29.6875 18.75C29.6875 18.3356 29.5229 17.9382 29.2299 17.6451C28.9368 17.3521 28.5394 17.1875 28.125 17.1875H12.5C12.0856 17.1875 11.6882 17.3521 11.3951 17.6451C11.1021 17.9382 10.9375 18.3356 10.9375 18.75C10.9375 19.1644 11.1021 19.5618 11.3951 19.8549C11.6882 20.1479 12.0856 20.3125 12.5 20.3125H28.125C28.5394 20.3125 28.9368 20.1479 29.2299 19.8549C29.5229 19.5618 29.6875 19.1644 29.6875 18.75ZM12.5 23.4375C12.0856 23.4375 11.6882 23.6021 11.3951 23.8951C11.1021 24.1882 10.9375 24.5856 10.9375 25C10.9375 25.4144 11.1021 25.8118 11.3951 26.1049C11.6882 26.3979 12.0856 26.5625 12.5 26.5625H18.75C19.1644 26.5625 19.5618 26.3979 19.8549 26.1049C20.1479 25.8118 20.3125 25.4144 20.3125 25C20.3125 24.5856 20.1479 24.1882 19.8549 23.8951C19.5618 23.6021 19.1644 23.4375 18.75 23.4375H12.5Z" fill="#1ABC9C"/>
<path d="M22.5216 40.6248C22.2892 40.6247 22.0597 40.5727 21.8499 40.4726C21.6401 40.3726 21.4553 40.227 21.3089 40.0465C21.1625 39.8659 21.0582 39.655 21.0036 39.4291C20.9491 39.2031 20.9456 38.9679 20.9935 38.7404L22.1685 33.1451C22.231 32.8492 22.3781 32.5778 22.5919 32.3639L37.3107 17.6467C38.2038 16.7944 39.3909 16.3188 40.6255 16.3188C41.8601 16.3188 43.0472 16.7944 43.9403 17.6467C44.3757 18.082 44.7211 18.5987 44.9567 19.1675C45.1923 19.7363 45.3136 20.3459 45.3136 20.9615C45.3136 21.5772 45.1923 22.1868 44.9567 22.7555C44.7211 23.3243 44.3757 23.8411 43.9403 24.2764L29.2185 38.9904C29.0051 39.2053 28.7335 39.353 28.4372 39.4154L22.8419 40.592C22.7365 40.6135 22.6292 40.6245 22.5216 40.6248ZM25.1388 34.2436L24.5513 37.0404L27.3435 36.4529L41.731 22.0639C42.0239 21.7709 42.1885 21.3735 42.1885 20.9592C42.1885 20.5449 42.0239 20.1475 41.731 19.8545C41.4339 19.5694 41.0381 19.4101 40.6263 19.4101C40.2145 19.4101 39.8187 19.5694 39.5216 19.8545L25.1388 34.2436Z" fill="#1ABC9C"/>
</svg>
