<svg width="50" height="50" viewBox="0 0 50 50" fill="none" xmlns="http://www.w3.org/2000/svg">
<path d="M16.6642 1.99951C14.4741 1.99951 12.6632 3.81046 12.6632 6.00052H10.5001C6.92501 6.00052 4.00098 8.92452 4.00098 12.4996V37.499C4.00098 41.0741 6.92501 43.999 10.5001 43.999H30.5169C31.3287 45.003 32.146 45.8371 32.9008 46.4795C33.3948 46.9001 33.8575 47.2415 34.3109 47.502C34.7643 47.7625 35.1534 48.0001 35.8764 48.0001C36.6418 48.0001 36.9757 47.7492 37.4115 47.4903C37.8474 47.2313 38.3016 46.8939 38.7885 46.4756C39.7624 45.6392 40.8637 44.4775 41.9223 43.0283C44.0397 40.1301 46.0005 36.07 46.0005 31.3719C46.0004 31.0499 45.8967 30.7364 45.7046 30.4779C45.5126 30.2193 45.2424 30.0295 44.9341 29.9364C42.6026 29.2308 40.9165 28.6354 39.729 27.9647C38.5414 27.2939 37.8305 26.6031 37.1899 25.448C37.0597 25.2139 36.8693 25.0188 36.6383 24.8832C36.4074 24.7475 36.1443 24.6761 35.8764 24.6765C35.609 24.6767 35.3465 24.7483 35.1161 24.8839C34.8857 25.0195 34.6957 25.2143 34.5658 25.448C33.9252 26.6031 33.2143 27.2939 32.0267 27.9647C30.8392 28.6354 29.1501 29.2308 26.8186 29.9364C26.5109 30.03 26.2414 30.2201 26.0499 30.4786C25.8584 30.7371 25.7551 31.0502 25.7552 31.3719C25.7552 35.0557 26.938 38.3473 28.4622 40.998H10.5001C8.53513 40.998 6.99808 39.4639 6.99808 37.499V12.4996C6.99808 10.5347 8.53513 8.99665 10.5001 8.99665H12.7921C13.2425 10.7116 14.8188 11.9977 16.6642 11.9977H24.6624C26.5078 11.9977 28.0841 10.7116 28.5345 8.99665H30.8304C32.7954 8.99665 34.3295 10.5347 34.3295 12.4996V21.0007C34.33 21.398 34.4881 21.7789 34.7692 22.0598C35.0502 22.3406 35.4312 22.4985 35.8285 22.4988C36.0255 22.499 36.2206 22.4605 36.4027 22.3853C36.5848 22.3102 36.7503 22.1999 36.8898 22.0608C37.0292 21.9217 37.14 21.7565 37.2156 21.5746C37.2912 21.3927 37.3302 21.1977 37.3305 21.0007V12.4996C37.3305 8.92452 34.4055 6.00053 30.8304 6.00053H28.6634C28.6634 3.81046 26.8525 1.99951 24.6624 1.99951H16.6642ZM16.6642 4.99955H24.6624C25.2423 4.99955 25.6634 5.42059 25.6634 6.00053V7.99664C25.6634 8.57659 25.2423 8.99665 24.6624 8.99665H16.6642C16.0843 8.99665 15.6642 8.57659 15.6642 7.99664V6.00053C15.6642 5.42059 16.0843 4.99955 16.6642 4.99955ZM11.5011 15.9987C11.3039 15.9983 11.1086 16.0368 10.9264 16.1119C10.7441 16.1871 10.5784 16.2974 10.4389 16.4367C10.2993 16.5759 10.1885 16.7413 10.1129 16.9233C10.0372 17.1054 9.99825 17.3006 9.99812 17.4977C9.99787 17.6951 10.0366 17.8906 10.112 18.073C10.1875 18.2555 10.2982 18.4212 10.4378 18.5607C10.5774 18.7002 10.7432 18.8108 10.9257 18.8862C11.1081 18.9615 11.3037 19.0001 11.5011 18.9997H26.5013C26.6982 18.9994 26.8933 18.9604 27.0751 18.8848C27.257 18.8092 27.4223 18.6985 27.5614 18.559C27.7005 18.4195 27.8107 18.254 27.8859 18.0719C27.961 17.8898 27.9996 17.6947 27.9993 17.4977C27.9991 17.1004 27.8412 16.7194 27.5603 16.4384C27.2795 16.1573 26.8986 15.9992 26.5013 15.9987H11.5011ZM11.5011 22.0007C11.304 22.0003 11.1088 22.0388 10.9266 22.1139C10.7444 22.189 10.5788 22.2992 10.4392 22.4383C10.2996 22.5775 10.1888 22.7427 10.1131 22.9247C10.0375 23.1066 9.99838 23.3017 9.99812 23.4988C9.99825 23.6959 10.0372 23.8911 10.1129 24.0732C10.1885 24.2553 10.2993 24.4207 10.4389 24.5599C10.5784 24.6991 10.7441 24.8094 10.9264 24.8846C11.1086 24.9597 11.3039 24.9982 11.5011 24.9978H26.5013C26.8986 24.9973 27.2795 24.8392 27.5603 24.5581C27.8412 24.2771 27.9991 23.8961 27.9993 23.4988C27.9988 23.1016 27.8408 22.7209 27.56 22.4401C27.2792 22.1592 26.8984 22.0012 26.5013 22.0007H11.5011ZM35.8764 28.2088C36.6069 29.0606 37.2463 30.0062 38.2534 30.5751C39.4798 31.2678 41.1108 31.7807 42.8149 32.328C42.5601 35.7817 41.181 38.951 39.4965 41.2568C38.5732 42.5207 37.6055 43.5343 36.8324 44.1983C36.4459 44.5302 36.105 44.7761 35.8793 44.9102C35.8699 44.9159 35.8623 44.9177 35.854 44.9215C35.837 44.914 35.8239 44.9102 35.8062 44.899C35.5754 44.7664 35.2334 44.5236 34.8462 44.1939C34.0717 43.5347 33.1117 42.5249 32.1997 41.2633C30.5356 38.9613 29.1862 35.7893 28.937 32.3276C30.6423 31.7799 32.2723 31.2677 33.4995 30.5746C34.5061 30.0061 35.1461 29.06 35.8764 28.2088ZM38.6049 33.6776C38.265 33.6621 37.9299 33.7627 37.6547 33.9628L35.3773 35.62L34.1371 34.6571C33.8233 34.4132 33.4256 34.3037 33.0312 34.3528C32.6368 34.4019 32.278 34.6055 32.0336 34.9189C31.7893 35.2323 31.6793 35.6298 31.7279 36.0242C31.7764 36.4185 31.9794 36.7775 32.2923 37.0224L34.4222 38.6835C34.6791 38.8836 34.9941 38.9947 35.3197 39C35.6453 39.0053 35.9637 38.9045 36.227 38.7128L39.4194 36.3876C39.7406 36.1538 39.9559 35.8022 40.0182 35.4098C40.0804 35.0175 39.9845 34.6165 39.7514 34.2948C39.619 34.1124 39.4471 33.9622 39.2486 33.8553C39.0501 33.7485 38.8301 33.6877 38.6049 33.6776Z" fill="#1ABC9C"/>
</svg>
