<svg width="50" height="50" viewBox="0 0 50 50" fill="none" xmlns="http://www.w3.org/2000/svg">
<path d="M39.7063 17.647V14.7058C39.7063 13.9258 39.3965 13.1777 38.8449 12.6261C38.2933 12.0745 37.5452 11.7646 36.7652 11.7646H31.8387C31.2331 10.0446 30.1085 8.55488 28.6203 7.50108C27.132 6.44729 25.3534 5.88135 23.5299 5.88135C21.7063 5.88135 19.9277 6.44729 18.4395 7.50108C16.9512 8.55488 15.8267 10.0446 15.221 11.7646H10.2946C9.1245 11.7646 8.00235 12.2294 7.17499 13.0568C6.34762 13.8842 5.88281 15.0063 5.88281 16.1764V39.7058C5.88281 40.4858 6.19269 41.2339 6.74426 41.7855C7.29584 42.3371 8.04394 42.647 8.82399 42.647H39.7063C40.4864 42.647 41.2345 42.3371 41.7861 41.7855C42.3376 41.2339 42.6475 40.4858 42.6475 39.7058V20.5882C42.6475 19.8081 42.3376 19.06 41.7861 18.5084C41.2345 17.9569 40.4864 17.647 39.7063 17.647ZM36.7652 14.7058V17.647H31.8387C32.1768 16.7031 32.3509 15.7084 32.3534 14.7058H36.7652ZM23.5299 8.82345C24.6933 8.82345 25.8306 9.16844 26.7979 9.8148C27.7653 10.4612 28.5192 11.3799 28.9645 12.4547C29.4097 13.5296 29.5262 14.7123 29.2992 15.8534C29.0722 16.9945 28.512 18.0426 27.6893 18.8653C26.8667 19.6879 25.8185 20.2482 24.6775 20.4751C23.5364 20.7021 22.3537 20.5856 21.2788 20.1404C20.2039 19.6952 19.2852 18.9412 18.6389 17.9739C17.9925 17.0065 17.6475 15.8692 17.6475 14.7058C17.6475 13.1457 18.2673 11.6495 19.3704 10.5463C20.4736 9.44319 21.9698 8.82345 23.5299 8.82345ZM10.2946 14.7058H14.7063C14.7089 15.7084 14.883 16.7031 15.221 17.647H10.2946C9.90455 17.647 9.5305 17.492 9.25471 17.2163C8.97893 16.9405 8.82399 16.5664 8.82399 16.1764C8.82399 15.7864 8.97893 15.4123 9.25471 15.1365C9.5305 14.8607 9.90455 14.7058 10.2946 14.7058ZM39.7063 39.7058H8.82399V33.8234H10.2946C10.6846 33.8234 11.0587 33.6685 11.3344 33.3927C11.6102 33.1169 11.7652 32.7429 11.7652 32.3529V27.9411C11.7652 27.5511 11.6102 27.177 11.3344 26.9012C11.0587 26.6254 10.6846 26.4705 10.2946 26.4705H8.82399V20.3176C9.29496 20.4917 9.79246 20.5833 10.2946 20.5882H16.971C17.7951 21.5132 18.8055 22.2534 19.9358 22.7603C21.0662 23.2672 22.291 23.5293 23.5299 23.5293C24.7687 23.5293 25.9935 23.2672 27.1239 22.7603C28.2543 22.2534 29.2647 21.5132 30.0887 20.5882H39.7063V39.7058Z" fill="#1ABC9C"/>
<path d="M20.6714 17.5648C20.7736 17.6674 20.895 17.7488 21.0288 17.8044C21.1625 17.86 21.3059 17.8886 21.4508 17.8886C21.5956 17.8886 21.739 17.86 21.8728 17.8044C22.0065 17.7488 22.128 17.6674 22.2302 17.5648L23.5302 16.2663L24.8302 17.5648C24.9312 17.6731 25.0529 17.7601 25.1882 17.8203C25.3235 17.8806 25.4696 17.913 25.6176 17.9157C25.7657 17.9183 25.9128 17.891 26.0502 17.8356C26.1875 17.7801 26.3123 17.6975 26.417 17.5928C26.5217 17.488 26.6043 17.3633 26.6598 17.226C26.7152 17.0886 26.7425 16.9415 26.7399 16.7934C26.7373 16.6453 26.7048 16.4993 26.6446 16.364C26.5843 16.2287 26.4974 16.1069 26.389 16.006L25.0905 14.706L26.389 13.406C26.4974 13.305 26.5843 13.1832 26.6446 13.0479C26.7048 12.9126 26.7373 12.7666 26.7399 12.6185C26.7425 12.4704 26.7152 12.3233 26.6598 12.186C26.6043 12.0486 26.5217 11.9239 26.417 11.8191C26.3123 11.7144 26.1875 11.6318 26.0502 11.5764C25.9128 11.5209 25.7657 11.4937 25.6176 11.4963C25.4696 11.4989 25.3235 11.5313 25.1882 11.5916C25.0529 11.6519 24.9312 11.7388 24.8302 11.8471L23.5302 13.1457L22.2302 11.8471C22.1292 11.7388 22.0074 11.6519 21.8721 11.5916C21.7369 11.5313 21.5908 11.4989 21.4427 11.4963C21.2946 11.4937 21.1475 11.5209 21.0102 11.5764C20.8728 11.6318 20.7481 11.7144 20.6434 11.8191C20.5386 11.9239 20.4561 12.0486 20.4006 12.186C20.3451 12.3233 20.3179 12.4704 20.3205 12.6185C20.3231 12.7666 20.3555 12.9126 20.4158 13.0479C20.4761 13.1832 20.563 13.305 20.6714 13.406L21.9699 14.706L20.6714 16.006C20.5689 16.1083 20.4876 16.2298 20.4322 16.3635C20.3767 16.4972 20.3482 16.6406 20.3482 16.7854C20.3482 16.9301 20.3767 17.0735 20.4322 17.2072C20.4876 17.341 20.5689 17.4625 20.6714 17.5648ZM33.8243 36.7648H35.2949C35.6849 36.7648 36.059 36.6098 36.3347 36.3341C36.6105 36.0583 36.7655 35.6842 36.7655 35.2942C36.7655 34.9042 36.6105 34.5301 36.3347 34.2543C36.059 33.9785 35.6849 33.8236 35.2949 33.8236H33.8243C33.4343 33.8236 33.0602 33.9785 32.7844 34.2543C32.5086 34.5301 32.3537 34.9042 32.3537 35.2942C32.3537 35.6842 32.5086 36.0583 32.7844 36.3341C33.0602 36.6098 33.4343 36.7648 33.8243 36.7648Z" fill="#1ABC9C"/>
</svg>
