<svg width="50" height="50" viewBox="0 0 50 50" fill="none" xmlns="http://www.w3.org/2000/svg">
<path d="M44.3855 15.1608L37.2324 8.00764L37.0152 7.03108C36.7449 5.80764 36.0136 4.76389 34.9574 4.09202C33.9027 3.42014 32.6511 3.19827 31.423 3.47014L20.6371 5.86389C19.4152 6.13577 18.373 6.86702 17.6996 7.9217L4.96833 27.917C3.57927 30.0983 4.22302 32.9998 6.40427 34.3889L19.584 42.7826C20.0105 43.0545 20.4668 43.242 20.9324 43.3608C21.4574 45.3764 23.2761 46.8748 25.4527 46.8748H41.0777C43.6621 46.8748 45.7652 44.7717 45.7652 42.1873V18.4842C45.7652 17.2311 45.2761 16.0498 44.3855 15.1608ZM8.0824 31.753C7.35583 31.2905 7.14021 30.3217 7.60271 29.5951L20.3371 9.60139C20.5621 9.24827 20.9105 9.00452 21.3168 8.91389L32.1027 6.52014C32.9386 6.32952 33.7793 6.86702 33.9668 7.70764L36.3605 18.4951C36.4496 18.8951 36.3746 19.3248 36.1543 19.6717L23.4215 39.667C23.1965 40.0186 22.8496 40.2623 22.4418 40.353C22.034 40.4436 21.6168 40.3686 21.2636 40.1467L8.0824 31.753ZM42.6402 42.1873C42.6402 43.0483 41.9386 43.7498 41.0777 43.7498H25.4527C24.9027 43.7498 24.4418 43.4467 24.1621 43.017C24.9105 42.6514 25.5746 42.0983 26.0543 41.3467L38.7886 21.3514C39.4511 20.3092 39.6777 19.0217 39.409 17.8186L38.4933 13.6889L42.1761 17.3717C42.4746 17.6701 42.6402 18.067 42.6402 18.4858V42.1873ZM19.8136 33.0311C19.3793 33.0311 18.948 32.9311 18.5277 32.7826C18.5183 32.7998 18.5183 32.8186 18.5074 32.8358L17.6683 34.153C17.3715 34.6201 16.8652 34.8764 16.3496 34.8764C16.0621 34.8764 15.7715 34.7983 15.5121 34.6311C14.784 34.1686 14.5699 33.2014 15.034 32.4748L15.8371 31.2155L14.5183 30.3764C13.7902 29.9139 13.5761 28.9467 14.0402 28.2201C14.5027 27.4936 15.4683 27.2764 16.1965 27.742L19.4136 29.7905C19.7777 30.0201 20.2605 29.9139 20.4918 29.5514C20.6808 29.2561 20.659 29.0233 20.6324 28.9045C20.6058 28.7873 20.5277 28.567 20.2902 28.4155L19.0496 27.6248C17.2324 26.4686 16.6965 24.0498 17.8527 22.2326C18.4136 21.353 19.284 20.7436 20.3011 20.517C21.0668 20.3467 21.8465 20.4092 22.559 20.6873C22.5715 20.6639 22.5715 20.6389 22.5871 20.6155L23.4261 19.2983C23.8886 18.5717 24.8558 18.3545 25.5824 18.8201C26.3105 19.2826 26.5246 20.2498 26.0605 20.9764L25.2215 22.2936L26.4621 23.0826C27.1902 23.5467 27.4043 24.5123 26.9418 25.2405C26.4777 25.9686 25.5136 26.1842 24.784 25.7201L21.5668 23.6717C21.3293 23.5186 21.098 23.542 20.9777 23.567C20.8605 23.5936 20.6402 23.6733 20.4886 23.9108C20.3371 24.1483 20.359 24.3811 20.3855 24.4998C20.4121 24.6186 20.4902 24.8373 20.7277 24.9889L21.9668 25.7795C22.8465 26.3389 23.4558 27.2092 23.6824 28.228C23.909 29.2467 23.7246 30.292 23.1636 31.1717C22.3933 32.3811 21.1121 33.0342 19.8121 33.0342L19.8136 33.0311Z" fill="#1ABC9C"/>
<path d="M29.3544 16.7904C28.6372 16.7904 27.9122 16.5936 27.2622 16.1811C26.3825 15.6201 25.7731 14.7498 25.5466 13.7326C25.32 12.7139 25.5044 11.6686 26.0653 10.7873C26.6247 9.90763 27.495 9.29826 28.5138 9.07169C29.5356 8.84513 30.5794 9.03107 31.4575 9.59044C33.2747 10.7483 33.8106 13.1686 32.6544 14.9842C31.9106 16.1529 30.645 16.7904 29.3528 16.7904H29.3544ZM29.3622 12.1029C29.2934 12.1029 29.2341 12.1123 29.1903 12.1217C29.0731 12.1483 28.8528 12.2264 28.7013 12.4639C28.5497 12.7014 28.5716 12.9342 28.5981 13.0514C28.6247 13.1686 28.7044 13.3889 28.9419 13.5404C29.3028 13.7717 29.7888 13.6654 30.02 13.3014C30.2513 12.9389 30.145 12.4545 29.7809 12.2217C29.6309 12.1264 29.4841 12.0998 29.3638 12.0998L29.3622 12.1029Z" fill="#1ABC9C"/>
</svg>
